<svg xmlns="http://www.w3.org/2000/svg" viewBox="0 0 331.14 317.12">
  <defs>
    <style>
      .cls-1 {
        fill: #1798d1;
        opacity: 0.3;
      }
    </style>
  </defs>
  <path id="bg_bs_3" class="cls-1" d="M345.94,234.016a101.089,101.089,0,0,0-1.264-16.005h0S333.015,128.938,259.4,57.263h0C240.009,36.943,211.77,24,180.3,24a109.176,109.176,0,0,0-79.1,33.4C27.866,128.8,16.064,217.593,16.064,218.15A98.068,98.068,0,0,0,14.8,234.016c0,44.119,29.925,81.557,71.651,95.2,0,0,66.172,24.077,172.384,3.758h0C308.288,324.48,345.94,283.423,345.94,234.016Z" transform="translate(-14.8 -24)"/>
</svg>
