<svg id="bs_docob_docobilling" xmlns="http://www.w3.org/2000/svg" viewBox="0 0 200 200">
  <defs>
    <style>
      .cls-1 {
        fill: none;
      }

      .cls-2 {
        fill: #1798d1;
      }

      .cls-3 {
        fill: #5ac2e2;
      }
    </style>
  </defs>
  <rect id="Rectangle_208" data-name="Rectangle 208" class="cls-1" width="200" height="200"/>
  <path id="Path_197" data-name="Path 197" class="cls-2" d="M154,47.75A43.481,43.481,0,0,0,110.25,4,44.673,44.673,0,0,0,74,22.75H69.625A65.625,65.625,0,1,0,135.25,88.375V84A44.673,44.673,0,0,0,154,47.75ZM69.625,141.5A53.125,53.125,0,1,1,122.75,88.375,53.08,53.08,0,0,1,69.625,141.5ZM132.75,69.625A65.862,65.862,0,0,0,88.375,25.25,30.165,30.165,0,0,1,110.25,16.5,30.946,30.946,0,0,1,141.5,47.75,30.165,30.165,0,0,1,132.75,69.625Z" transform="translate(21 21)"/>
  <path id="Path_198" data-name="Path 198" class="cls-3" d="M23.8,11.5V19A18.2,18.2,0,0,0,11.3,36.5,19.224,19.224,0,0,0,30.05,55.25,5.9,5.9,0,0,1,36.3,61.5a5.9,5.9,0,0,1-6.25,6.25A5.9,5.9,0,0,1,23.8,61.5H11.3A18.2,18.2,0,0,0,23.8,79v7.5H36.3V79A18.2,18.2,0,0,0,48.8,61.5,19.224,19.224,0,0,0,30.05,42.75,5.9,5.9,0,0,1,23.8,36.5a5.9,5.9,0,0,1,6.25-6.25A5.9,5.9,0,0,1,36.3,36.5H48.8A18.2,18.2,0,0,0,36.3,19V11.5Z" transform="translate(59.325 60.375)"/>
</svg>
