<svg id="ic_fitur_campaign" xmlns="http://www.w3.org/2000/svg" viewBox="0 0 48 48">
  <defs>
    <style>
      .cls-1 {
        fill: none;
      }

      .cls-2 {
        fill: #5ac2e2;
      }

      .cls-3 {
        fill: #1798d1;
      }
    </style>
  </defs>
  <rect id="Rectangle_55" data-name="Rectangle 55" class="cls-1" width="48" height="48"/>
  <path id="Path_86" data-name="Path 86" class="cls-2" d="M28,16a11.97,11.97,0,0,0-1.5,23.85v-3A8.989,8.989,0,1,1,37,28a8.836,8.836,0,0,1-3,6.6V31H31v9h9V37H35.95A11.814,11.814,0,0,0,40,28,12.035,12.035,0,0,0,28,16Z" transform="translate(8 8)"/>
  <g id="Group_83" data-name="Group 83" transform="translate(4.5 6)">
    <path id="Path_83" data-name="Path 83" class="cls-3" d="M9,4v9H3V32.5A4.614,4.614,0,0,0,7.5,37H19.8a20.328,20.328,0,0,1-.3-3H11.7a5.33,5.33,0,0,0,.3-1.5V7H36V19.15a17.7,17.7,0,0,1,3,.6V4ZM9,32.5A1.613,1.613,0,0,1,7.5,34,1.613,1.613,0,0,1,6,32.5V16H9Z" transform="translate(-3 -4)"/>
    <path id="Path_84" data-name="Path 84" class="cls-3" d="M11,8v7.5H29V8Zm15,4.5H14V11H26Z" transform="translate(1 -2)"/>
    <rect id="Rectangle_56" data-name="Rectangle 56" class="cls-3" width="7.5" height="3" transform="translate(12 15)"/>
    <path id="Path_85" data-name="Path 85" class="cls-3" d="M18,14v3h0a13.169,13.169,0,0,1,7.5-2.85V14Z" transform="translate(4.5 1)"/>
    <path id="Path_87" data-name="Path 87" class="cls-3" d="M11,17v3h6.45a9.106,9.106,0,0,1,1.05-1.5V17Z" transform="translate(1 2.5)"/>
    <path id="Path_88" data-name="Path 88" class="cls-3" d="M11,20v3h4.8a10.183,10.183,0,0,1,1.05-3Z" transform="translate(1 4)"/>
  </g>
</svg>
