<svg id="ic_fitur_support" xmlns="http://www.w3.org/2000/svg" viewBox="0 0 48 48">
  <defs>
    <style>
      .cls-1 {
        fill: none;
      }

      .cls-2 {
        fill: #1798d1;
      }

      .cls-3 {
        fill: #5ac2e2;
      }
    </style>
  </defs>
  <rect id="Rectangle_63" data-name="Rectangle 63" class="cls-1" width="48" height="48"/>
  <g id="Group_81" data-name="Group 81" transform="translate(6 5.25)">
    <path id="Path_96" data-name="Path 96" class="cls-2" d="M4,3.5v30h6v7.65l9.45-7.65H40V3.5Zm33,27H18.55L13,34.85V30.5H7V6.5H37Z" transform="translate(-4 -3.5)"/>
    <path id="Path_97" data-name="Path 97" class="cls-3" d="M11.5,7.5,10,9l1.5,3,2.25.75,1.95,1.8,1.5-1.5-1.95-1.8L14.5,9Z" transform="translate(-1 -1.5)"/>
    <path id="Path_98" data-name="Path 98" class="cls-3" d="M23.525,7.5a4.42,4.42,0,0,0-4.5,4.5c0,.45.15.9.15,1.2l-8.55,8.4a2.227,2.227,0,1,0,3.15,3.15l8.4-8.55a3.3,3.3,0,0,0,1.2.15,4.42,4.42,0,0,0,4.5-4.5,4.152,4.152,0,0,0-.45-1.95l-3.15,3.15-2.1-2.1,3.15-3.15A5.594,5.594,0,0,0,23.525,7.5Z" transform="translate(-1.025 -1.5)"/>
    <path id="Path_99" data-name="Path 99" class="cls-3" d="M19.4,14.4l-2.7,2.7,4.05,4.2a2.227,2.227,0,1,0,3.15-3.15l-3.75-3.6H20C19.85,14.55,19.7,14.4,19.4,14.4Z" transform="translate(2.35 1.95)"/>
  </g>
</svg>
