<svg id="ic_fitur_integration" xmlns="http://www.w3.org/2000/svg" viewBox="0 0 48 48">
  <defs>
    <style>
      .cls-1 {
        fill: none;
      }

      .cls-2 {
        fill: #5ac2e2;
      }

      .cls-3 {
        fill: #1798d1;
      }
    </style>
  </defs>
  <rect id="Rectangle_62" data-name="Rectangle 62" class="cls-1" width="48" height="48"/>
  <g id="Group_79" data-name="Group 79" transform="translate(4.5 4.5)">
    <path id="Path_94" data-name="Path 94" class="cls-2" d="M36,15V12H33.9a9.746,9.746,0,0,0-1.35-3.45L33.9,7.2,31.8,5.1,30.45,6.45A6.972,6.972,0,0,0,27,5.1V3H24V5.1a9.746,9.746,0,0,0-3.45,1.35l-1.5-1.5L16.95,7.2l1.5,1.35a7.035,7.035,0,0,0-1.35,3.3H15v3h2.1a9.746,9.746,0,0,0,1.35,3.45L16.8,19.8l2.1,2.1,1.5-1.65a6.972,6.972,0,0,0,3.45,1.35V24h3V21.9a8.089,8.089,0,0,0,3.3-1.35l1.35,1.5,2.25-2.1-1.5-1.5A6.972,6.972,0,0,0,33.6,15H36ZM25.5,19.05a5.537,5.537,0,0,1-5.55-5.55A5.445,5.445,0,0,1,25.5,7.95a5.537,5.537,0,0,1,5.55,5.55A5.636,5.636,0,0,1,25.5,19.05Z" transform="translate(3 -3)"/>
    <path id="Path_95" data-name="Path 95" class="cls-3" d="M25.8,24.8a14.778,14.778,0,0,0-.3-2.55l2.7-1.05L27,18.5l-2.7,1.05a12.588,12.588,0,0,0-3.45-3.45l1.05-2.7-2.7-1.2L18,14.9a13.21,13.21,0,0,0-2.55-.3,14.779,14.779,0,0,0-2.55.3L12,12.2,9.3,13.4l1.05,2.7A9.5,9.5,0,0,0,6.9,19.55L4.2,18.5,3,21.2l2.7,1.2a13.21,13.21,0,0,0-.3,2.55,14.779,14.779,0,0,0,.3,2.55L3,28.4l1.2,2.7,2.7-1.05a9.5,9.5,0,0,0,3.45,3.45L9.3,36.2,12,37.4l1.05-2.7a13.21,13.21,0,0,0,2.55.3,14.779,14.779,0,0,0,2.55-.3l1.05,2.7,2.7-1.2-1.05-2.7a12.588,12.588,0,0,0,3.45-3.45L27,31.1l1.2-2.7-2.7-1.05A14.778,14.778,0,0,0,25.8,24.8ZM15.6,32a7.2,7.2,0,0,1,0-14.4,7.2,7.2,0,1,1,0,14.4Z" transform="translate(-3 1.6)"/>
  </g>
</svg>
