<svg id="ic_fitur_listmanagement" xmlns="http://www.w3.org/2000/svg" viewBox="0 0 48 48">
  <defs>
    <style>
      .cls-1 {
        fill: none;
      }

      .cls-2 {
        fill: #1798d1;
      }

      .cls-3 {
        fill: #5ac2e2;
      }
    </style>
  </defs>
  <rect id="Rectangle_53" data-name="Rectangle 53" class="cls-1" width="48" height="48"/>
  <g id="Group_170" data-name="Group 170" transform="translate(-3 -3)">
    <g id="Group_169" data-name="Group 169">
      <g id="surface1_1_" transform="translate(6.3 6)">
        <path id="Path_78" data-name="Path 78" class="cls-2" d="M21.9,13a9,9,0,1,0,0,18,5.1,5.1,0,0,0,1.5-.15V27.7a5.33,5.33,0,0,1-1.5.3,6,6,0,1,1,6-6,5.409,5.409,0,0,1-.9,3h3.3a9.672,9.672,0,0,0,.45-3A8.805,8.805,0,0,0,21.9,13Zm15,9a3.093,3.093,0,0,1,1.65-2.7l1.05-.45-.3-1.2A13.618,13.618,0,0,0,37.5,13a16.319,16.319,0,0,0-3.15-3.9l-.9-.9-1.05.75a2.974,2.974,0,0,1-3.15.15h0a3.009,3.009,0,0,1-1.5-2.7l.15-1.2-1.2-.3A12.993,12.993,0,0,0,21.9,4a18.86,18.86,0,0,0-4.95.75l-1.2.3.15,1.2a2.856,2.856,0,0,1-1.5,2.7,2.974,2.974,0,0,1-3.15-.15l-.9-.6-.9.9A17.183,17.183,0,0,0,4.5,17.65l-.3,1.2,1.05.45a3.034,3.034,0,0,1,0,5.4l-1.05.45.3,1.2A13.618,13.618,0,0,0,6.3,31a16.319,16.319,0,0,0,3.15,3.9l.9.9,1.05-.6a2.974,2.974,0,0,1,3.15-.15,3.009,3.009,0,0,1,1.5,2.7l-.15,1.2,1.2.3a18.529,18.529,0,0,0,6.45.6v-3a16.9,16.9,0,0,1-4.8-.3,5.68,5.68,0,0,0-2.7-4.2,6.3,6.3,0,0,0-4.95-.3A12.933,12.933,0,0,1,9,29.35,13.555,13.555,0,0,1,7.8,26.2,5.716,5.716,0,0,0,9.9,22a5.931,5.931,0,0,0-2.25-4.35,13.288,13.288,0,0,1,3.45-5.7,5.781,5.781,0,0,0,4.95-.3,5.418,5.418,0,0,0,2.7-4.05,12.325,12.325,0,0,1,6.6,0,5.491,5.491,0,0,0,2.55,4.05,6.3,6.3,0,0,0,4.95.3,12.933,12.933,0,0,1,2.1,2.7,13.556,13.556,0,0,1,1.2,3.15A5.191,5.191,0,0,0,34.8,25h4.5l-.75-.3A3.093,3.093,0,0,1,36.9,22Z" transform="translate(-4.2 -4)"/>
      </g>
      <path id="Path_79" data-name="Path 79" class="cls-3" d="M17,18V39H39.5V18ZM36.5,36H20V25.5H36.5Zm0-13.5H20V21H36.5Z" transform="translate(8.5 9)"/>
    </g>
    <path id="Path_80" data-name="Path 80" class="cls-3" d="M30.9,25.9l-4.5,4.5-1.05,1.05L24.3,30.4l-3-3,2.1-2.1,1.95,1.95L28.8,23.8Z" transform="translate(10.65 11.9)"/>
  </g>
</svg>
