<svg xmlns="http://www.w3.org/2000/svg" viewBox="0 0 24 24">
  <defs>
    <style>
      .cls-1 {
        opacity: 0.3;
      }

      .cls-2 {
        fill: none;
      }

      .cls-3 {
        fill: #071d36;
      }
    </style>
  </defs>
  <g id="ic_harga_email" class="cls-1">
    <rect id="Rectangle_227" data-name="Rectangle 227" class="cls-2" width="24" height="24"/>
    <g id="surface1_1_" transform="translate(3.015 2.999)">
      <path id="Path_206" data-name="Path 206" class="cls-3" d="M13.155,4A8.965,8.965,0,0,0,11.8,21.85a8.867,8.867,0,0,0,6.9-1.875l-.975-1.2a7.56,7.56,0,0,1-5.775,1.575,7.483,7.483,0,0,1-6.3-6.15,7.406,7.406,0,0,1,7.5-8.7,7.5,7.5,0,0,1,7.35,7.275V13a3.009,3.009,0,0,1-3,3A1.5,1.5,0,0,1,16,14.5v-6H14.5v.6a3.282,3.282,0,0,0-1.875-.6,3.361,3.361,0,0,0-3.375,3.375v2.25A3.361,3.361,0,0,0,12.63,17.5a3.434,3.434,0,0,0,2.55-1.2A3.1,3.1,0,0,0,17.5,17.5,4.513,4.513,0,0,0,22,13v-.3A9.093,9.093,0,0,0,13.155,4Zm-.525,6A1.857,1.857,0,0,1,14.5,11.875v2.25a1.875,1.875,0,0,1-3.75,0v-2.25A1.857,1.857,0,0,1,12.63,10Z" transform="translate(-4.02 -3.999)"/>
    </g>
  </g>
</svg>
