<svg xmlns="http://www.w3.org/2000/svg" viewBox="0 0 24 24">
  <defs>
    <style>
      .cls-1 {
        opacity: 0.3;
      }

      .cls-2 {
        fill: none;
      }
    </style>
  </defs>
  <g id="ic_insta" class="cls-1">
    <rect id="Rectangle_74" data-name="Rectangle 74" class="cls-2" width="24" height="24"/>
    <g id="surface1_1_" transform="translate(3.75 3.75)">
      <path id="Path_101" data-name="Path 101" d="M7.25,5A2.307,2.307,0,0,0,5,7.25v12A2.307,2.307,0,0,0,7.25,21.5h12a2.307,2.307,0,0,0,2.25-2.25v-12A2.307,2.307,0,0,0,19.25,5ZM17,7.25h2.25V9.5H17Zm-3.75,3a3,3,0,1,1-3,3A3.009,3.009,0,0,1,13.25,10.25ZM6.5,11.75H8.975a4.836,4.836,0,0,0-.225,1.5,4.5,4.5,0,0,0,9,0,4.836,4.836,0,0,0-.225-1.5H20v7.5a.709.709,0,0,1-.75.75h-12a.709.709,0,0,1-.75-.75Z" transform="translate(-5 -5)"/>
    </g>
  </g>
</svg>
