<svg id="ic_mengapa_pengalaman" xmlns="http://www.w3.org/2000/svg" viewBox="0 0 56 56">
  <defs>
    <style>
      .cls-1 {
        fill: none;
      }

      .cls-2 {
        fill: #1798d1;
      }

      .cls-3 {
        fill: #5ac2e2;
      }
    </style>
  </defs>
  <rect id="Rectangle_8" data-name="Rectangle 8" class="cls-1" width="56" height="56"/>
  <path id="Path_48" data-name="Path 48" class="cls-2" d="M23.31,3A19.482,19.482,0,0,0,4,22.31a21.514,21.514,0,0,0,2.809,9.831c1.4,2.809,2.458,5.266,2.458,7.9v8.6h3.511v-8.6c0-3.511-1.4-6.5-2.809-9.3A19.28,19.28,0,0,1,7.511,22.31a15.734,15.734,0,0,1,15.8-15.8c6.671,0,10.357,2.809,12.464,5.618a15.03,15.03,0,0,1,2.633,5.618v.176l.176.176,4.74,9.3a1.359,1.359,0,0,1,.176.527h-.176c-.878.351-2.809.878-2.809.878l-1.4.527V34.6a5.207,5.207,0,0,1-1.755,3.511,5.587,5.587,0,0,1-3.511,1.755H30.332v8.777h3.511V43.376A9,9,0,0,0,42.621,34.6V31.966a5.579,5.579,0,0,0,1.58-.527h.176a3.315,3.315,0,0,0,2.282-2.282,3.54,3.54,0,0,0-.351-2.984h0l-4.74-9.3v-.176a19.372,19.372,0,0,0-3.16-6.671C35.774,6.511,31.034,3,23.31,3Z" transform="translate(3.022 2.266)"/>
  <path id="Path_49" data-name="Path 49" class="cls-3" d="M27.257,16.551a8.4,8.4,0,0,0-2.282-4.038l1.4-2.458L23.219,8.3l-1.4,2.458a8.894,8.894,0,0,0-2.282-.351,8.894,8.894,0,0,0-2.282.351L15.846,8.3l-3.16,1.755,1.4,2.458a7.2,7.2,0,0,0-2.282,4.038H9v3.511h2.809A8.4,8.4,0,0,0,14.091,24.1l-1.4,2.458,3.16,1.755,1.4-2.458a8.894,8.894,0,0,0,2.282.351,8.894,8.894,0,0,0,2.282-.351l1.4,2.458,3.16-1.755-1.4-2.458a7.2,7.2,0,0,0,2.282-4.038h2.809V16.551H27.257Zm-7.724,6.144a4.389,4.389,0,1,1,4.389-4.389A4.346,4.346,0,0,1,19.533,22.695Z" transform="translate(6.799 6.271)"/>
</svg>
