<svg id="ic_mengapa_kecepatan" xmlns="http://www.w3.org/2000/svg" viewBox="0 0 56 56">
  <defs>
    <style>
      .cls-1 {
        fill: none;
      }

      .cls-2 {
        fill: #1798d1;
      }

      .cls-3 {
        fill: #5ac2e2;
      }
    </style>
  </defs>
  <rect id="Rectangle_11" data-name="Rectangle 11" class="cls-1" width="56" height="56"/>
  <g id="Group_13" data-name="Group 13" transform="translate(11.375 3.5)">
    <path id="Path_58" data-name="Path 58" class="cls-2" d="M28.45,9.5,23.2,25.25,31.95,27,18.125,44.5H17.95l5.25-14-8.75-1.75L28.275,9.5h.175M33.35,6H26.525l-1.05,1.4L11.65,26.65,8.5,31.025l5.25,1.05,4.725.875-3.85,10.325L12.875,48h7l1.05-1.4L34.75,29.1l3.5-4.55-5.6-1.05-4.9-1.05,4.025-12.075Z" transform="translate(-5 1)"/>
    <path id="Path_59" data-name="Path 59" class="cls-3" d="M31.35,2,30.125,5.5h-3.85l-1.05,1.4L12.45,24.75l-1.05,1.4L10.175,27.9,6.5,27.025,9.65,22.65,23.475,3.4,24.525,2Z" transform="translate(-6.5 -2)"/>
  </g>
</svg>
