<svg id="ic_mengapa_terpercaya" xmlns="http://www.w3.org/2000/svg" viewBox="0 0 56 56">
  <defs>
    <style>
      .cls-1 {
        fill: none;
      }

      .cls-2 {
        fill: #5ac2e2;
      }

      .cls-3 {
        fill: #1798d1;
      }
    </style>
  </defs>
  <rect id="Rectangle_12" data-name="Rectangle 12" class="cls-1" width="56" height="56"/>
  <g id="Group_15" data-name="Group 15" transform="translate(5.25 7)">
    <path id="Path_60" data-name="Path 60" class="cls-2" d="M30.125,4A7.981,7.981,0,0,0,24,6.975,7.981,7.981,0,0,0,17.875,4,7.842,7.842,0,0,0,10,11.875c0,7,11.9,13.65,13.125,14.35L24,26.75l.875-.525c1.4-.7,13.125-7.35,13.125-14.35A7.842,7.842,0,0,0,30.125,4ZM24,22.725c-4.375-2.625-10.5-7.35-10.5-10.85a4.375,4.375,0,0,1,8.75,0h3.5a4.375,4.375,0,0,1,8.75,0C34.5,15.375,28.375,20.1,24,22.725Z" transform="translate(2.25 -4)"/>
    <path id="Path_61" data-name="Path 61" class="cls-3" d="M16.125,18a9.949,9.949,0,0,0-3.15.525h0L3,22.2,6.5,32l8.575-3.325L27.5,35.5l21.7-8.75L47.8,23.6,27.85,31.825,15.425,25,8.6,27.625l-1.05-3.15L14.2,21.85a6.2,6.2,0,0,1,2.1-.35,5.831,5.831,0,0,1,3.85,1.4h0a14.953,14.953,0,0,0,5.075,3.325c1.925.7,4.025.525,7.525.525v-3.5a26.424,26.424,0,0,1-6.65-.525c-1.225-.35-2.1-1.05-3.85-2.45h0A9.239,9.239,0,0,0,16.125,18Z" transform="translate(-3 6.5)"/>
  </g>
</svg>
