<svg id="ic_mengapa_uptodate" xmlns="http://www.w3.org/2000/svg" viewBox="0 0 56 56">
  <defs>
    <style>
      .cls-1 {
        fill: none;
      }

      .cls-2 {
        fill: #1798d1;
      }

      .cls-3 {
        fill: #5ac2e2;
      }
    </style>
  </defs>
  <rect id="Rectangle_9" data-name="Rectangle 9" class="cls-1" width="56" height="56"/>
  <path id="Path_53" data-name="Path 53" class="cls-2" d="M30,16H42.25V3.75h-3.5V9.175A20.982,20.982,0,1,0,23,44a23.716,23.716,0,0,0,3.5-.35v-3.5a23.716,23.716,0,0,1-3.5.35,17.5,17.5,0,1,1,14-28H30Z" transform="translate(1.5 1.5)"/>
  <path id="Path_54" data-name="Path 54" class="cls-3" d="M16,16V40.5H40.5V16ZM37,37H19.5V19.5H37Z" transform="translate(12 12)"/>
  <path id="Path_55" data-name="Path 55" class="cls-3" d="M31.25,19.9l-5.775,5.775L21.45,21.65,19,24.1l6.475,6.475L33.7,22.35Z" transform="translate(14.25 14.925)"/>
</svg>
