<svg id="ic_mengapa_tanparesiko" xmlns="http://www.w3.org/2000/svg" viewBox="0 0 56 56">
  <defs>
    <style>
      .cls-1 {
        fill: none;
      }

      .cls-2 {
        fill: #1798d1;
      }

      .cls-3 {
        fill: #5ac2e2;
      }
    </style>
  </defs>
  <rect id="Rectangle_13" data-name="Rectangle 13" class="cls-1" width="56" height="56"/>
  <g id="Group_17" data-name="Group 17" transform="translate(8.75 7)">
    <path id="Path_62" data-name="Path 62" class="cls-2" d="M41.75,9.25A15.109,15.109,0,0,1,33.175,6.8C30.9,5.575,28.275,4,24.25,4S17.6,5.575,15.325,6.8c-2.45,1.225-4.55,2.45-8.575,2.45H5V11c0,13.475,4.55,22.225,9.275,27.65A29.289,29.289,0,0,0,23.725,46h.525l.7-.175A28.99,28.99,0,0,0,34.4,38.65C38.95,33.4,43.675,24.475,43.675,11V9.25ZM31.775,36.375A20.424,20.424,0,0,1,24.25,42.15c-.875-.35-3.85-1.75-7.525-5.95C12.7,31.65,8.85,24.125,8.5,12.4a20.674,20.674,0,0,0,8.4-2.625C19.525,8.55,21.275,7.5,24.25,7.5s4.9,1.05,7.35,2.45A23.766,23.766,0,0,0,40,12.575C39.65,24.3,35.625,31.825,31.775,36.375Z" transform="translate(-5 -4)"/>
    <path id="Path_63" data-name="Path 63" class="cls-3" d="M29.55,11.3,18.525,22.15l-5.775-5.6L10.3,19l7,7,1.225,1.225L19.75,26,32,13.75Z" transform="translate(-1.025 1.475)"/>
  </g>
</svg>
