<svg id="ic_mengapa_kenyamanan" xmlns="http://www.w3.org/2000/svg" viewBox="0 0 56 56">
  <defs>
    <style>
      .cls-1 {
        fill: none;
      }

      .cls-2 {
        fill: #5ac2e2;
      }

      .cls-3 {
        fill: #1798d1;
      }
    </style>
  </defs>
  <rect id="Rectangle_10" data-name="Rectangle 10" class="cls-1" width="56" height="56"/>
  <g id="surface1_3_" transform="translate(5.25 10.5)">
    <path id="Path_56" data-name="Path 56" class="cls-2" d="M25.75,44.85l-.875-.525C24,43.8,3,31.375,3,18.25A12.175,12.175,0,0,1,15.25,6a12.431,12.431,0,0,1,10.5,5.95A12.431,12.431,0,0,1,36.25,6,12.175,12.175,0,0,1,48.5,18.25c0,13.125-21,25.55-21.875,26.075ZM15.25,9.5A8.665,8.665,0,0,0,6.5,18.25c0,9.8,15.4,19.95,19.25,22.4C29.6,38.2,45,28.05,45,18.25a8.75,8.75,0,1,0-17.5,0H24A8.665,8.665,0,0,0,15.25,9.5Z" transform="translate(-3 -6)"/>
  </g>
  <g id="surface1_2_" transform="translate(5.25 10.5)">
    <path id="Path_57" data-name="Path 57" class="cls-3" d="M33.625,35.05a72.919,72.919,0,0,1-7.875,5.6C21.9,38.375,6.5,28.05,6.5,18.25A8.665,8.665,0,0,1,15.25,9.5,8.665,8.665,0,0,1,24,18.25a13.1,13.1,0,0,1,1.75-6.3A12.431,12.431,0,0,0,15.25,6,12.175,12.175,0,0,0,3,18.25C3,31.375,24,43.8,24.875,44.325l.875.525.875-.525A65.909,65.909,0,0,0,36.25,37.5C35.375,36.625,34.5,35.925,33.625,35.05Z" transform="translate(-3 -6)"/>
  </g>
</svg>
