<svg id="ic_produk_mengapa" xmlns="http://www.w3.org/2000/svg" viewBox="0 0 32 32">
  <defs>
    <style>
      .cls-1 {
        fill: none;
      }

      .cls-2 {
        fill: #1798d1;
      }

      .cls-3 {
        fill: #5ac2e2;
      }
    </style>
  </defs>
  <rect id="Rectangle_126" data-name="Rectangle 126" class="cls-1" width="32" height="32"/>
  <g id="Group_152" data-name="Group 152">
    <path id="Path_120" data-name="Path 120" class="cls-2" d="M3,4.5v18H8v5.1l1.6-1.3,4.7-3.8H29V4.5H3Zm24,16H13.7l-.3.2L10,23.4V20.5H5V6.5H27Z"/>
    <g id="Group_151" data-name="Group 151">
      <path id="Path_121" data-name="Path 121" class="cls-3" d="M16,8.5a2.92,2.92,0,0,0-3,3h2a.892.892,0,0,1,1-1,.892.892,0,0,1,1,1c0,.5-.5.8-.8.9H16a1.539,1.539,0,0,0-1,1.5v1.6h2V14.2a3.059,3.059,0,0,0,2-2.7A2.92,2.92,0,0,0,16,8.5Z"/>
      <rect id="Rectangle_127" data-name="Rectangle 127" class="cls-3" width="2" height="2" transform="translate(15 16.5)"/>
    </g>
  </g>
</svg>
