<svg id="ic_produk_docoblast" xmlns="http://www.w3.org/2000/svg" viewBox="0 0 32 32">
  <defs>
    <style>
      .cls-1 {
        fill: none;
      }

      .cls-2 {
        fill: #5ac2e2;
      }

      .cls-3 {
        fill: #1798d1;
      }
    </style>
  </defs>
  <rect id="Rectangle_125" data-name="Rectangle 125" class="cls-1" width="32" height="32"/>
  <path id="Subtraction_1" data-name="Subtraction 1" class="cls-2" d="M-123,1396c-.166,0-.334,0-.5-.009v-2c.158.007.326.01.5.01a12.014,12.014,0,0,0,12-12,12.014,12.014,0,0,0-12-12c-.166,0-.334,0-.5.01v-2c.183-.006.346-.009.5-.009a13.9,13.9,0,0,1,9.888,4.113A13.9,13.9,0,0,1-109,1382a13.9,13.9,0,0,1-4.113,9.887A13.9,13.9,0,0,1-123,1396Z" transform="translate(139 -1366)"/>
  <path id="Path_119" data-name="Path 119" class="cls-3" d="M16,6a10,10,0,0,0,0,20,9.843,9.843,0,0,0,6-2l-1.2-1.6A7.913,7.913,0,0,1,16,24a8,8,0,1,1,8-8v1.2a1.9,1.9,0,1,1-3.8,0V11.1h-2V12a4.887,4.887,0,0,0-3.1-1.1,5.1,5.1,0,0,0,0,10.2,5.381,5.381,0,0,0,3.8-1.7,3.976,3.976,0,0,0,3.2,1.7A3.9,3.9,0,0,0,26,17.2V16A10.029,10.029,0,0,0,16,6Zm-.8,13.1A3.1,3.1,0,1,1,18.3,16,3.116,3.116,0,0,1,15.2,19.1Z"/>
</svg>
