<svg xmlns="http://www.w3.org/2000/svg" viewBox="0 0 24 24">
  <defs>
    <style>
      .cls-1 {
        opacity: 0.3;
      }

      .cls-2 {
        fill: none;
      }
    </style>
  </defs>
  <g id="ic_teleg" class="cls-1">
    <rect id="Rectangle_75" data-name="Rectangle 75" class="cls-2" width="24" height="24"/>
    <g id="surface1_1_" transform="translate(1.5 3)">
      <path id="Path_102" data-name="Path 102" d="M20.075,4a1.791,1.791,0,0,0-.675.15h0c-.225.075-1.2.525-2.775,1.125-1.575.675-3.525,1.5-5.55,2.325C7.1,9.25,3.2,10.9,3.2,10.9h.075a1.266,1.266,0,0,0-.525.3,1.273,1.273,0,0,0-.45.45,1.128,1.128,0,0,0-.3.825,1.612,1.612,0,0,0,.675,1.05,5.821,5.821,0,0,0,.525.3h0l3.675,1.2c.15.525,1.125,3.675,1.35,4.35a3.3,3.3,0,0,0,.45.9c.075.075.15.225.3.3.075,0,.075.075.15.075H9.2a1.182,1.182,0,0,0,1.05-.15h0l2.175-1.95,3.6,2.775H16.1a2.152,2.152,0,0,0,1.95-.15,2.552,2.552,0,0,0,.6-.75V20.35L21.425,6.025a2.134,2.134,0,0,0,0-.975,1.192,1.192,0,0,0-.6-.75A.826.826,0,0,0,20.075,4ZM20,5.5v.15h0L17.225,19.825a.073.073,0,0,1-.075.075c-.075.075-.075.075-.375,0L12.35,16.525,9.65,19l.6-3.6s6.975-6.45,7.275-6.75.225-.3.225-.3c0-.375-.45-.075-.45-.075L8.15,13.9h0L3.8,12.4h0s3.9-1.65,7.875-3.3c2.025-.825,3.975-1.65,5.55-2.325S19.925,5.65,20,5.65C19.925,5.5,19.925,5.5,20,5.5Z" transform="translate(-2 -4)"/>
    </g>
  </g>
</svg>
