<svg id="ic_tutor_respon" xmlns="http://www.w3.org/2000/svg" viewBox="0 0 32 32">
  <defs>
    <style>
      .cls-1 {
        fill: none;
      }

      .cls-2 {
        fill: #1798d1;
      }

      .cls-3 {
        fill: #5ac2e2;
      }
    </style>
  </defs>
  <rect id="Rectangle_183" data-name="Rectangle 183" class="cls-1" width="32" height="32"/>
  <rect id="Rectangle_184" data-name="Rectangle 184" class="cls-1" width="32" height="32"/>
  <path id="Path_164" data-name="Path 164" class="cls-2" d="M11.4,2a3.4,3.4,0,0,0-1,.1A8.826,8.826,0,0,0,2.5,9.8a8.916,8.916,0,0,0,3.1,8,5.316,5.316,0,0,1,1.8,3.9V27H9.7a1.945,1.945,0,0,0,3.4,0h2.3V21.7a5.438,5.438,0,0,1,1.9-4A8.934,8.934,0,0,0,11.4,2Zm2,23h-4V23h4ZM16,16.2A7.184,7.184,0,0,0,13.6,21H9.3A7.525,7.525,0,0,0,7,16.3,6.872,6.872,0,0,1,4.6,10a7,7,0,0,1,6.1-6h.8a6.957,6.957,0,0,1,7,7A7.2,7.2,0,0,1,16,16.2Z"/>
  <path id="Path_165" data-name="Path 165" class="cls-3" d="M29.6,20.9h-2v.3a4.009,4.009,0,0,0-1.5-1.4h.5V18h-2v1.2a2.537,2.537,0,0,0-1.2-.2,3.75,3.75,0,0,0-1.1.1V17.9h-2v1.8h.5a5.356,5.356,0,0,0-1.5,1.5v-.3h-2v1.9h1.3a4.869,4.869,0,0,0-.1,1.2,5.019,5.019,0,0,0,.2,1.2H17.4V27h2v-.3a4.009,4.009,0,0,0,1.5,1.4h-.5V30h2V28.8a4.1,4.1,0,0,0,1.1.1,3.75,3.75,0,0,0,1.1-.1V30h2V28.2h-.5a5.356,5.356,0,0,0,1.5-1.5V27h2V25.1H28.3a4.869,4.869,0,0,0,.1-1.2,5.019,5.019,0,0,0-.2-1.2h1.3V20.9ZM23.4,27a3,3,0,1,1,3-3A3.009,3.009,0,0,1,23.4,27Z"/>
</svg>
