<svg id="ic_telepon" xmlns="http://www.w3.org/2000/svg" viewBox="0 0 24 24">
  <defs>
    <style>
      .cls-1 {
        fill: none;
      }

      .cls-2 {
        fill: #1798d1;
      }
    </style>
  </defs>
  <rect id="Rectangle_1869" data-name="Rectangle 1869" class="cls-1" width="24" height="24"/>
  <g id="surface1_1_" transform="translate(2.222 2.25)">
    <path id="Path_2318" data-name="Path 2318" class="cls-2" d="M7.266,3a2.232,2.232,0,0,0-1.125.375H6.066L3.741,5.85h0a2.21,2.21,0,0,0-.6,2.55h0a22.51,22.51,0,0,0,5.475,8.475,26.077,26.077,0,0,0,8.475,5.475h0a2.79,2.79,0,0,0,2.625-.525l2.4-2.4a1.727,1.727,0,0,0,0-2.325l-3.075-3.075V13.95a1.727,1.727,0,0,0-2.325,0l-1.5,1.5a11.5,11.5,0,0,1-3.075-2.1,10.435,10.435,0,0,1-2.1-3.075l1.5-1.5a1.652,1.652,0,0,0,0-2.325h0l-.075-.075-3-3.075H8.391A3.143,3.143,0,0,0,7.266,3Zm0,1.5c.075,0,.075,0,.15.075l3,3.075.075.075s.075.075-.075.15L8.541,9.75l-.375.3.15.45a11.339,11.339,0,0,0,2.7,4.05l.15.15a15.474,15.474,0,0,0,3.825,2.475l.45.225,2.25-2.25c.15-.15.075-.15.225,0l3.075,3.075c.15.15.15.075,0,.225l-2.325,2.325A1.048,1.048,0,0,1,17.541,21a22.244,22.244,0,0,1-7.95-5.1,22.434,22.434,0,0,1-5.1-7.95.945.945,0,0,1,.225-.975L4.791,6.9l2.25-2.325A.276.276,0,0,1,7.266,4.5Z" transform="translate(-2.962 -3)"/>
  </g>
</svg>
