<svg id="ic_tutor_template" xmlns="http://www.w3.org/2000/svg" viewBox="0 0 31.9 32">
  <defs>
    <style>
      .cls-1 {
        fill: none;
      }

      .cls-2 {
        fill: #5ac2e2;
      }

      .cls-3 {
        fill: #1798d1;
      }
    </style>
  </defs>
  <rect id="Rectangle_54" data-name="Rectangle 54" class="cls-1" width="31.9" height="31.9" transform="translate(0 0.1)"/>
  <path id="Path_81" data-name="Path 81" class="cls-2" d="M13.358,6.28l-1.3-1.3V2.093H9.171L7.776.7l-.7-.7-.8.7-1.3,1.4H2.093V4.984L.7,6.28l-.7.8.7.7,1.4,1.4v2.891H4.984l1.4,1.4.7.7.7-.7,1.4-1.4h2.891V9.171l1.4-1.4.7-.7Zm-3.09,1.695-.3.3v1.794H8.274l-.3.2-.9.9-.9-.9-.3-.3H4.087V8.274l-.3-.3-1-.9.9-.9.3-.3V4.087H5.782l.3-.3.9-.9,1,.9.3.3h1.794V5.882l.3.3.9.9Z"/>
  <path id="Path_82" data-name="Path 82" class="cls-3" d="M14.069,4.1h0l1.894,1.994H26.031V8.088H15.963L14.069,9.982v.1H26.031V22.044H6.094V15.963L4.2,14.069H4.1V28.025H28.025V4.1H14.069ZM26.031,26.031H6.094V24.038H26.031Z" transform="translate(-0.013 -0.013)"/>
</svg>
