<svg xmlns="http://www.w3.org/2000/svg" viewBox="0 0 32 32">
  <defs>
    <style>
      .cls-1 {
        opacity: 0.3;
      }

      .cls-2 {
        fill: none;
      }
    </style>
  </defs>
  <g id="ic_write" class="cls-1">
    <rect id="Rectangle_1876" data-name="Rectangle 1876" class="cls-2" width="32" height="32"/>
    <g id="surface1_1_">
      <path id="Path_2324" data-name="Path 2324" d="M13,2.9a6.957,6.957,0,0,0-7,7,6.851,6.851,0,0,0,3.1,5.8A9.881,9.881,0,0,0,3,24.9H5a8.024,8.024,0,0,1,8-8,7.877,7.877,0,0,1,5.5,2.3l-4.7,4.7-.1.3L13,27.7l-.3,1.5,1.5-.3,3.5-.7.3-.1L28.1,18a3.018,3.018,0,0,0,0-4.3,3.049,3.049,0,0,0-2.1-.9,3.227,3.227,0,0,0-2.1.8l-4,4a12.086,12.086,0,0,0-3-2A6.927,6.927,0,0,0,13,2.9Zm0,2a5,5,0,1,1-5,5A4.951,4.951,0,0,1,13,4.9Zm13,10a.908.908,0,0,1,.7.3.967.967,0,0,1,0,1.4L17,26.2l-1.8.4.4-1.8,9.7-9.7A.844.844,0,0,1,26,14.9Z"/>
    </g>
  </g>
</svg>
