<svg xmlns="http://www.w3.org/2000/svg" viewBox="0 0 118.978 40">
  <defs>
    <style>
      .cls-1 {
        opacity: 0.5;
        background-color: white;
        filter: brightness(1.75);
      }
    </style>
  </defs>
  <g id="logo_docob_gray" class="cls-1" transform="translate(488 -228)">
    <path id="Union_1" data-name="Union 1" d="M4.09,30.316c-1.383-.15-2.737-.3-4.06-.481a5.715,5.715,0,0,1,5.293-5.022h.361l17.835-.782A11.6,11.6,0,0,1,21.474,26.5c-2.977,2.677-7.338,4.03-13.113,4.03A39.4,39.4,0,0,1,4.09,30.316Zm86.075-2.677a5.313,5.313,0,0,1-1.985-.812,4.145,4.145,0,0,1-1.263-1.444,4.841,4.841,0,0,1-.451-2.2,3.987,3.987,0,0,1,.541-2.165,4.331,4.331,0,0,1,1.444-1.414,5.879,5.879,0,0,1,1.955-.752,10.606,10.606,0,0,1,2.165-.241q.767,0,1.714.09v-.361a2.191,2.191,0,0,0-.21-1.053,1.523,1.523,0,0,0-.6-.631,2.135,2.135,0,0,0-.932-.3,7.653,7.653,0,0,0-1.233-.09,9.173,9.173,0,0,0-3.1.571,7.976,7.976,0,0,1-.571-1.323,5.33,5.33,0,0,1-.181-1.474,13.75,13.75,0,0,1,2.376-.6,14.744,14.744,0,0,1,2.226-.181,6.555,6.555,0,0,1,4.391,1.353,5.4,5.4,0,0,1,1.564,4.331v8.09a19.406,19.406,0,0,1-2.286.571,15.62,15.62,0,0,1-3.038.271A13.094,13.094,0,0,1,90.165,27.639Zm.662-6.165a1.644,1.644,0,0,0-.782,1.534,1.6,1.6,0,0,0,.3,1.083,2.073,2.073,0,0,0,.722.541,2.838,2.838,0,0,0,.9.211c.3.03.6.03.812.03a7.381,7.381,0,0,0,.812-.06c.271-.03.511-.09.692-.12V21.113c-.21-.03-.451-.06-.692-.09a5.34,5.34,0,0,0-.662-.03A3.97,3.97,0,0,0,90.827,21.474Zm-35.97,5.835a5.353,5.353,0,0,1-2.075-1.534,6.58,6.58,0,0,1-1.233-2.316,3.648,3.648,0,0,1-.15-.541l3.85-.15a4.517,4.517,0,0,0,.421,1.083,2.634,2.634,0,0,0,4.3,0,4.644,4.644,0,0,0,.481-1.293l3.91-.15a5.707,5.707,0,0,1-.271,1.083A6.852,6.852,0,0,1,62.857,25.8a5.69,5.69,0,0,1-2.105,1.534,7.835,7.835,0,0,1-2.947.511A7.367,7.367,0,0,1,54.857,27.308Zm-10.827,0a5.562,5.562,0,0,1-2.135-1.534A6.694,6.694,0,0,1,40.6,23.459l-.03-.12,4-.18a3.847,3.847,0,0,0,.391.571,3.218,3.218,0,0,0,2.5.992h.752a4.925,4.925,0,0,0,.662-.06,5.251,5.251,0,0,0,.662-.15,7.635,7.635,0,0,1,.782-.271,6.135,6.135,0,0,1,.541,1.263,5.738,5.738,0,0,1,.211,1.684,6.955,6.955,0,0,1-2.015.541,14.052,14.052,0,0,1-1.985.12A7.726,7.726,0,0,1,44.03,27.308Zm-14.256,0A5.353,5.353,0,0,1,27.7,25.774a6.57,6.57,0,0,1-1.083-1.835l3.94-.15.03.06a2.276,2.276,0,0,0,2.135,1.113,2.294,2.294,0,0,0,2.165-1.113c.03-.09.09-.15.12-.241l4-.18h.03v.03A6.851,6.851,0,0,1,37.8,25.774,5.692,5.692,0,0,1,35.7,27.308a7.73,7.73,0,0,1-2.977.541A7.368,7.368,0,0,1,29.774,27.308Zm39.1.451c-.812-.03-1.744-.12-2.767-.241V22.286l1.564-.06-1.564-.06V8.09c.571-.09,1.233-.15,1.985-.211s1.684-.09,2.827-.09a16.407,16.407,0,0,1,2.8.241,6.585,6.585,0,0,1,2.316.812,4.333,4.333,0,0,1,1.564,1.564,4.714,4.714,0,0,1,.571,2.436,4.55,4.55,0,0,1-.271,1.594,4.433,4.433,0,0,1-.692,1.293,3.906,3.906,0,0,1-.962.9,2.724,2.724,0,0,1-1.113.451,5.728,5.728,0,0,1,1.383.391,4.1,4.1,0,0,1,1.413.872,5.221,5.221,0,0,1,1.083,1.5,4.979,4.979,0,0,1,.451,2.165A5.546,5.546,0,0,1,78.8,24.9a4.575,4.575,0,0,1-1.774,1.775,6.952,6.952,0,0,1-2.587.9,20.549,20.549,0,0,1-3.1.241C70.5,27.82,69.684,27.82,68.872,27.76Zm.752-7.94c-.09,0-.18.03-.271.03A4.5,4.5,0,0,1,70.677,21.5a1.99,1.99,0,0,1,0,1.384,4.112,4.112,0,0,1-1.353,1.654c.09,0,.181.03.271.03.331.03.722.06,1.083.06,3.1,0,5.624-1.083,5.654-2.466,0-1.323-2.526-2.406-5.624-2.406C70.346,19.759,69.985,19.789,69.624,19.819Zm.481,2.406a.642.642,0,0,0,.481.631,1.571,1.571,0,0,0,.12-.631,2.956,2.956,0,0,0-.15-.662A.718.718,0,0,0,70.105,22.226Zm-.15-6.256h1.2a5.638,5.638,0,0,0,1.263-.12,2.384,2.384,0,0,0,1.022-.421,2.075,2.075,0,0,0,.662-.842,3.254,3.254,0,0,0,.241-1.323,2.668,2.668,0,0,0-.271-1.293,2.02,2.02,0,0,0-.722-.782,2.373,2.373,0,0,0-.993-.391,6.579,6.579,0,0,0-1.083-.09,7.276,7.276,0,0,0-1.263.09h-.06ZM102.2,27.729c-.361-.03-.692-.06-1.053-.12-.331-.06-.662-.15-.993-.241a11.051,11.051,0,0,1-1.053-.361,6.655,6.655,0,0,1,.271-1.474,9.412,9.412,0,0,1,.541-1.444,10.834,10.834,0,0,0,1.684.541,7.542,7.542,0,0,0,1.654.181c.241,0,.511-.03.812-.06a2.324,2.324,0,0,0,.812-.24,2.412,2.412,0,0,0,.632-.451,1.248,1.248,0,0,0-.12-1.684,4.552,4.552,0,0,0-1.083-.511l-1.654-.421a5.435,5.435,0,0,1-2.376-1.293,3.45,3.45,0,0,1-.842-2.556,3.874,3.874,0,0,1,1.474-3.218,6.269,6.269,0,0,1,4-1.173,12.1,12.1,0,0,1,2.075.18,10.689,10.689,0,0,1,2.075.572,6.111,6.111,0,0,1-.271,1.444,6.755,6.755,0,0,1-.511,1.323,11.585,11.585,0,0,0-1.444-.481,7.33,7.33,0,0,0-1.654-.211,3.254,3.254,0,0,0-1.444.271.958.958,0,0,0-.511.9.972.972,0,0,0,.361.842,5.2,5.2,0,0,0,1.053.451l1.534.451a9.857,9.857,0,0,1,1.353.511,3.84,3.84,0,0,1,1.053.782,2.866,2.866,0,0,1,.662,1.143,5.2,5.2,0,0,1,.24,1.654,4.343,4.343,0,0,1-.421,1.865,4.44,4.44,0,0,1-1.2,1.5,6.129,6.129,0,0,1-1.925.992,8.465,8.465,0,0,1-2.556.361C102.947,27.76,102.526,27.76,102.2,27.729Zm10.436-1.173a4.714,4.714,0,0,1-1.293-3.729V16.481H109.5l-.12-.541L114.436,9.5h.631v4.06h3.278c.06.271.09.511.12.722a4.875,4.875,0,0,1,.03.662,5.8,5.8,0,0,1-.03.722c-.03.241-.06.481-.12.782h-3.278v5.5a5.42,5.42,0,0,0,.15,1.353,2.045,2.045,0,0,0,.391.812,1.184,1.184,0,0,0,.631.391,3.645,3.645,0,0,0,.9.12,6.358,6.358,0,0,0,.782-.06c.271-.03.481-.09.692-.12a5.989,5.989,0,0,1,.271,1.053,6.086,6.086,0,0,1,.09.993v.511c0,.12-.03.271-.03.391a10.255,10.255,0,0,1-2.556.3A5.615,5.615,0,0,1,112.632,26.556ZM80.782,27.7V12.3c0-1.143-.391-4.511,3.82-4.511V21.955l-.03,5.714-2.165.03Zm-9.955-4.782a1.867,1.867,0,0,0,.12-.692,2.07,2.07,0,0,0-.15-.722,3.157,3.157,0,0,0-.632-1.022,3.061,3.061,0,0,1,1.113,1.2,1.453,1.453,0,0,1,.09.541,1.178,1.178,0,0,1-.12.541,2.9,2.9,0,0,1-1.023,1.143A3.51,3.51,0,0,0,70.827,22.917Zm2.556-.692a.481.481,0,1,1,.481.481A.475.475,0,0,1,73.383,22.226Zm-12.812-.271a8.864,8.864,0,0,0,.09-1.323A6.268,6.268,0,0,0,60,17.413,2.326,2.326,0,0,0,57.835,16.3,2.247,2.247,0,0,0,55.7,17.413a6.339,6.339,0,0,0-.662,3.218c0,.391.03.752.06,1.113l-3.94-.21c-.03-.3-.03-.632-.03-.932a10,10,0,0,1,.421-2.887,6.721,6.721,0,0,1,1.233-2.346A5.736,5.736,0,0,1,54.857,13.8a7.965,7.965,0,0,1,5.925,0,6.119,6.119,0,0,1,2.105,1.564,6.259,6.259,0,0,1,1.233,2.346,10,10,0,0,1,.391,2.887,12.256,12.256,0,0,1-.09,1.5ZM40.18,21.083v-.511a9.645,9.645,0,0,1,.421-2.857A6.425,6.425,0,0,1,41.865,15.4a6.123,6.123,0,0,1,2.105-1.564,6.97,6.97,0,0,1,2.947-.571c.391,0,.752,0,1.083.03a9.27,9.27,0,0,1,.963.12c.3.06.6.12.9.21a10.672,10.672,0,0,1,1.023.361,8.051,8.051,0,0,1-.15,1.383,6.594,6.594,0,0,1-.511,1.474,8.891,8.891,0,0,0-1.414-.361,9.425,9.425,0,0,0-1.383-.09A3.028,3.028,0,0,0,44.9,17.474,4.966,4.966,0,0,0,44.06,20.6a4.664,4.664,0,0,0,.03.662Zm-2.075-.12-2.587-.12v-.3a6.268,6.268,0,0,0-.662-3.218,2.325,2.325,0,0,0-2.165-1.113,2.246,2.246,0,0,0-2.135,1.113,6.671,6.671,0,0,0-.662,3.218v.06l-3.88-.12a9.39,9.39,0,0,1,.421-2.8,6.72,6.72,0,0,1,1.233-2.346,5.736,5.736,0,0,1,2.075-1.564,6.965,6.965,0,0,1,2.947-.571,7.013,7.013,0,0,1,2.977.571,6.123,6.123,0,0,1,2.105,1.564,6.258,6.258,0,0,1,1.233,2.346,10,10,0,0,1,.391,2.887v.451Zm-21.353-.9a16.845,16.845,0,0,0,.361-3.729,14.4,14.4,0,0,0-.631-4.6A7.777,7.777,0,0,0,14.8,8.812a5.893,5.893,0,0,0-2.466-1.534,9.591,9.591,0,0,0-2.947-.451c-.571,0-.993,0-1.233.03-.271,0-.421.03-.511.03V19.7l-1.293-.06C2.286,19.4,0,16.481,0,14.677V.6C.421.541.963.481,1.624.391c.662-.06,1.383-.15,2.135-.21C4.541.12,5.323.06,6.135.03,6.947.03,7.759,0,8.511,0c5.383,0,9.5,1.383,12.3,4.12,2.8,2.767,4.21,6.857,4.21,12.3a27.437,27.437,0,0,1-.271,3.97Z" transform="translate(-488 228)"/>
    <g id="Group_478" data-name="Group 478" transform="translate(-403.188 259.85)">
      <path id="Path_265" data-name="Path 265" d="M286.211,113.87v-.842h-.03a2.157,2.157,0,0,1-1.774.992c-1.233,0-2.406-.992-2.406-3.068,0-2.045,1.143-2.977,2.436-2.977a2.11,2.11,0,0,1,1.684.812V105.9h1.534v7.97Zm-1.383-4.722c-1.113,0-1.263,1.2-1.263,1.865,0,1.414.692,1.8,1.2,1.8a1.148,1.148,0,0,0,.812-.331,2.026,2.026,0,0,0,.511-1.624C286.12,109.689,285.549,109.148,284.827,109.148Z" transform="translate(-282 -105.9)"/>
      <path id="Path_266" data-name="Path 266" d="M304.877,112.8a2.874,2.874,0,0,1,2.977,3.008,2.922,2.922,0,0,1-2.977,3.038,3.023,3.023,0,0,1,0-6.045Zm0,4.782c.692,0,1.414-.511,1.414-1.774,0-1.173-.632-1.774-1.414-1.774-.722,0-1.414.571-1.414,1.774C303.464,117.041,304.156,117.582,304.877,117.582Z" transform="translate(-295.915 -110.725)"/>
      <path id="Path_267" data-name="Path 267" d="M326.05,115.045a1.006,1.006,0,0,0-1.053-.9c-1.263,0-1.263,1.353-1.263,1.714,0,1.233.391,1.895,1.293,1.895s1.023-.782,1.113-1.113l1.5.271a2.486,2.486,0,0,1-2.677,2.105,2.727,2.727,0,0,1-2.767-3.008A2.7,2.7,0,0,1,325,113a2.4,2.4,0,0,1,2.586,1.835Z" transform="translate(-310.11 -110.865)"/>
      <path id="Path_268" data-name="Path 268" d="M342.977,112.8a2.874,2.874,0,0,1,2.977,3.008,2.922,2.922,0,0,1-2.977,3.038,3.023,3.023,0,0,1,0-6.045Zm0,4.782c.692,0,1.414-.511,1.414-1.774,0-1.173-.632-1.774-1.414-1.774-.722,0-1.414.571-1.414,1.774C341.564,117.041,342.256,117.582,342.977,117.582Z" transform="translate(-322.556 -110.725)"/>
      <path id="Path_269" data-name="Path 269" d="M362.478,109.678h-1.023v2.316c0,.812,0,1.083.421,1.083a1.759,1.759,0,0,0,.571-.12h.03l.12,1.173a3.511,3.511,0,0,1-1.2.241,1.393,1.393,0,0,1-1.293-.6,3.3,3.3,0,0,1-.211-1.594v-2.526H359.2v-1.2h.692V107.3l1.534-.9v2.045h1.023v1.233Z" transform="translate(-335.982 -106.25)"/>
      <path id="Path_270" data-name="Path 270" d="M374.993,117.1a2.425,2.425,0,0,1-2.526,1.714,2.5,2.5,0,0,1-2.436-1.383,3.612,3.612,0,0,1-.331-1.594c0-1.564.812-3.038,2.647-3.038,2.165,0,2.767,1.744,2.737,3.459h-3.82a1.3,1.3,0,0,0,1.263,1.414.929.929,0,0,0,.962-.812Zm-1.444-1.8c-.03-1.263-.9-1.353-1.143-1.353a1.185,1.185,0,0,0-1.143,1.353Z" transform="translate(-343.324 -110.725)"/>
      <path id="Path_271" data-name="Path 271" d="M389,105.9h1.534v7.97H389Z" transform="translate(-356.82 -105.9)"/>
    </g>
  </g>
</svg>
